# xmcd
#
# Track frame offsets: 
#        150
#        3909
#        21439
#        49896
#        94022
#        118233
#        153382
#        176337
#        225801
#
# Disc length: 3239 seconds
#
# Revision: 0
# Processed by: cddbd v1.5.2PL0 Copyright (c) Steve Scherf et al.
# Submitted via: ExactAudioCopy v1.0b6
#
DISCID=610ca509
DTITLE=Live At The Royal Albert Hall - Ben Poole
DYEAR=2014
DGENRE=Blues
TTITLE0=Intro
TTITLE1=Let's Go Upstairs
TTITLE2=Love Nobody No More
TTITLE3=(I Know) I'm Losing You
TTITLE4=Mr. Pitiful
TTITLE5=It Doesn't Have To Be That Way
TTITLE6=Leave It On
TTITLE7=Have You Ever Loved A Woman
TTITLE8=Starting All Over Again
EXTD=
EXTT0=
EXTT1=
EXTT2=
EXTT3=
EXTT4=
EXTT5=
EXTT6=
EXTT7=
EXTT8=
PLAYORDER=
